<svg width="268" height="272" viewBox="0 0 268 272" fill="none" xmlns="http://www.w3.org/2000/svg">
<g clip-path="url(#clip0_15_5035)">
<path fill-rule="evenodd" clip-rule="evenodd" d="M154.979 142.683C139.542 124.52 129.094 102.262 130.84 77.3201C135.87 5.45678 235.668 21.2658 255.08 57.5362C274.493 93.8067 272.186 185.81 247.097 192.292C237.091 194.877 215.777 188.545 194.083 175.438L207.7 272H127.3L154.979 142.683Z" fill="#B28B67"/>
<path fill-rule="evenodd" clip-rule="evenodd" d="M262.67 73.8216C261.874 69.1202 259.928 63.8993 258.357 59.4514C256.333 53.7173 253.268 48.5474 249.896 43.6749C243.548 34.5015 235.932 26.2177 227.524 19.3424C212.165 6.78398 192.614 -0.459763 173.387 1.89265C163.68 3.0803 154.257 6.792 146.236 12.97C138.99 18.5518 132.019 26.7687 122.636 27.3591C112.426 28.0009 103.067 18.9677 94.8785 13.3887C85.6462 7.09921 75.8246 2.51623 65.0343 0.734753C46.9579 -2.24867 29.9765 3.87321 17.5186 18.7394C4.26171 34.5593 -5.37505 57.7591 3.33085 78.7204C4.94909 82.6168 7.03095 85.9017 10.0188 88.6243C12.7589 91.1209 16.9439 93.7771 18.0549 97.7662C19.235 102.007 15.7099 107.477 14.3429 111.303C12.3846 116.785 10.7767 122.539 11.3483 128.497C12.2875 138.282 18.422 147.623 24.8996 154.054C31.4915 160.599 39.6045 164.352 48.2699 166.082C54.056 167.237 59.9693 167.874 65.8499 167.441C68.7692 167.225 71.3453 166.413 74.1737 165.766C76.9242 165.137 78.4615 165.87 80.7951 167.382C91.6358 174.407 103.292 177.125 115.81 176.08C126.374 175.198 138.551 172.632 147.169 165.376C156.74 157.318 156.549 146.205 154.297 134.333C156.683 135.518 163.284 136.252 159.34 131.527C157.777 129.656 154.825 128.895 152.82 127.794C150.485 126.512 148.114 124.856 146.301 122.766C138.981 114.325 146.375 97.1478 155.575 94.3171C169.245 90.1117 172.305 109.49 182.064 114.503C187.674 117.385 193.543 113.445 197.747 109.423C203.378 104.035 207.216 96.8961 210.529 89.6317C213.258 83.6494 215.798 77.583 218.58 71.6305C219.879 68.8507 224.376 60.9926 222.117 57.8495C231.908 55.8924 242.813 59.9708 251.246 65.3192C254.731 67.5304 257.388 69.968 259.247 73.8714C259.645 74.7077 260.512 77.194 261.601 77.2959C263.628 77.4858 262.87 75.0029 262.67 73.8216Z" fill="#191847"/>
</g>
<defs>
<clipPath id="clip0_15_5035">
<rect width="268" height="272" fill="white"/>
</clipPath>
</defs>
</svg>
