<svg width="206" height="272" viewBox="0 0 206 272" fill="none" xmlns="http://www.w3.org/2000/svg">
<path fill-rule="evenodd" clip-rule="evenodd" d="M88.2039 152.97C72.1153 136.252 61.2261 115.764 63.0457 92.8061C68.2884 26.6592 172.302 41.2106 192.534 74.5959C212.767 107.981 210.363 192.666 184.214 198.633C173.786 201.012 151.571 195.183 128.961 183.119L143.153 272H59.356L88.2039 152.97Z" fill="#B28B67"/>
<path fill-rule="evenodd" clip-rule="evenodd" d="M104.741 45.7039C146.836 32.7937 201.464 47.8803 194.154 78.1402C189.459 97.5712 164.039 107.277 139.029 117.663C135.348 112.005 128.327 108.182 120.271 108.182C108.4 108.182 98.7754 116.485 98.7754 126.727C98.7754 130.417 100.024 133.854 102.177 136.743C93.7636 143.222 87.8273 151.02 86.3917 161.135C72.8314 161.135 50.9143 125.888 58.15 92.4484C56.2529 92.6327 54.3254 92.7273 52.3729 92.7273C23.4481 92.7273 0 71.9696 0 46.3636C0 20.7577 23.4481 0 52.3729 0C81.0488 0 104.342 20.4021 104.741 45.7039Z" fill="#191847"/>
</svg>
