<svg width="206" height="272" viewBox="0 0 206 272" fill="none" xmlns="http://www.w3.org/2000/svg">
<path fill-rule="evenodd" clip-rule="evenodd" d="M188.946 64.6094C200.03 109.479 214.474 210.336 199.735 226.157H106.487C106.477 225.976 106.468 225.794 106.459 225.613C71.897 221.412 45.0162 189.219 45.0162 150.13V75.9481C45.0162 34.0031 75.9677 0 114.148 0H120.579C155.252 0 183.963 28.0426 188.946 64.6094Z" fill="#191847"/>
<path fill-rule="evenodd" clip-rule="evenodd" d="M81.2294 135.965C66.4129 116.859 56.3848 93.4439 58.0605 67.2068C62.8887 -8.38967 158.677 8.24059 177.31 46.3952C195.943 84.5498 193.729 181.332 169.648 188.151C160.044 190.871 139.586 184.209 118.764 170.421L131.833 272H54.6625L81.2294 135.965Z" fill="#B28B67"/>
<path fill-rule="evenodd" clip-rule="evenodd" d="M102.09 123.194C105.646 165.153 104.221 213.069 93.625 224.443H0.377071C-4.81842 125.273 45.3933 163.676 45.3933 70.3057C48.5238 66.9455 51.4819 63.6196 54.4089 60.7513L54.3053 58.0053C70.4522 21.6899 90.9373 3.53223 115.761 3.53223C152.996 3.53223 164.748 22.5663 174.755 38.7265C167.272 66.9336 138.233 71.1161 112.43 88.6983C109.389 85.9836 105.511 84.3565 101.287 84.3565C91.5194 84.3565 83.6016 93.055 83.6016 103.785C83.6016 114.515 91.5194 123.214 101.287 123.214C101.556 123.214 101.824 123.207 102.09 123.194Z" fill="#191847"/>
</svg>
