<svg width="206" height="272" viewBox="0 0 206 272" fill="none" xmlns="http://www.w3.org/2000/svg">
<path fill-rule="evenodd" clip-rule="evenodd" d="M39.7915 132.301C17.8941 112.68 3.07348 88.6341 5.55001 61.6903C12.6856 -15.9426 154.253 1.13566 181.79 40.3181C209.328 79.5004 206.056 178.89 170.466 185.893C156.272 188.686 126.037 181.844 95.2635 167.685L114.579 272H0.528076L39.7915 132.301Z" fill="#B28B67"/>
<path fill-rule="evenodd" clip-rule="evenodd" d="M100.966 70.2635C105.332 116.687 116.88 139.899 135.611 139.899C163.71 139.899 187.549 126.282 199.878 126.282C208.865 126.282 206.859 134.867 200.901 141.233C195.987 146.484 172.051 151.547 172.051 159.689C172.051 167.831 190.962 161.532 190.962 166.36C190.962 174.348 194.286 189.366 176.125 189.366C157.746 189.366 105.05 184.253 96.0194 163.43C90.1913 149.992 86.423 122.144 84.7145 79.8887C83.5995 79.7876 82.4649 79.7355 81.3143 79.7355C65.5671 79.7355 52.8015 89.4804 52.8015 101.501C52.8015 107.604 56.0914 113.12 61.3911 117.072C54.7936 124.18 47.3997 131.607 38.9271 139.269C7.09744 124.691 -16.522 82.0172 14.5967 41.0226C23.198 20.9399 42.6701 10.213 65.6672 5.23219C84.296 -0.716349 103.634 -1.38705 119.959 2.17904C151.959 4.27433 180.534 11.7231 188.632 16.1467C188.632 39.2737 182.762 46.1353 132.622 45.5305C120.302 50.4974 110.831 59.0504 100.966 70.2635Z" fill="#191847"/>
</svg>
