<svg width="206" height="272" viewBox="0 0 206 272" fill="none" xmlns="http://www.w3.org/2000/svg">
<g clip-path="url(#clip0_15_5005)">
<path fill-rule="evenodd" clip-rule="evenodd" d="M78.8489 154.307C64.4667 137.777 54.7324 117.519 56.359 94.8194C61.0457 29.4157 154.027 43.8037 172.114 76.8139C190.201 109.824 188.052 193.557 164.676 199.457C155.354 201.81 135.495 196.046 115.283 184.117L127.97 272H53.0606L78.8489 154.307Z" fill="#B28B67"/>
<path fill-rule="evenodd" clip-rule="evenodd" d="M23.7006 73.0479C21.2811 70.7002 19.9613 67.3492 18.8196 64.1674C17.634 60.862 16.482 57.5226 15.6949 54.0822C14.122 47.2082 14.107 39.3029 19.1152 33.9653C23.1317 29.6849 29.1584 27.7651 34.7204 27.3479C38.4261 27.0696 42.232 27.5778 45.7843 28.7212C49.3087 29.8555 52.3467 32.1163 55.7633 33.5194C55.8937 26.1117 57.1897 18.3606 61.0278 12.0355C64.7211 5.94968 70.6095 2.53456 77.3155 1.63105C84.1985 0.703832 90.9954 2.28093 97.1573 5.5437C98.7 6.36084 100.228 7.2169 101.691 8.18578C102.916 8.99714 104.189 9.97423 105.626 10.3042C107.228 10.6725 108.022 9.76653 109.063 8.62218C110.284 7.28045 111.659 6.09869 113.114 5.05104C119.549 0.419491 127.993 -1.48483 135.448 1.29137C138.883 2.57044 142.223 4.74268 144.553 7.73601C146.631 10.4042 148.113 14.6368 150.98 16.4958C152.196 17.285 153.056 16.2395 154.163 15.4667C155.827 14.3056 157.414 13.0244 159.098 11.895C161.464 10.3081 164.025 9.12122 166.768 8.49993C170.783 7.59034 176.331 7.80352 177.479 12.9527C177.91 14.8868 177.58 16.9553 177.44 18.904C177.249 21.5799 177.05 24.2548 176.813 26.9267C176.633 28.9554 176.405 30.9148 176.014 32.907C175.805 33.9689 175.153 35.9486 175.618 37.0121C176.199 38.3414 178.881 37.5856 180.027 37.6319C182.291 37.7234 184.564 38.1121 186.656 39.0591C188.278 39.7932 189.984 40.8727 190.668 42.6931C191.089 43.8113 190.978 44.9599 190.78 46.1104C190.541 47.491 190.814 48.2233 190.992 49.6164C194.032 48.1506 204.567 44.894 205.892 50.2286C206.333 52.0049 205.328 54.012 204.562 55.51C203.217 58.1375 201.454 60.5391 199.651 62.8293C195.892 67.6071 191.403 71.7281 186.574 75.2524C192.232 77.7153 193.709 84.9802 188.81 89.3085C186.647 91.2195 183.739 91.645 181.011 91.5227C180.012 91.478 178.573 91.1021 177.787 91.2724C177.364 91.364 176.911 91.7149 176.326 91.7541C172.475 92.0123 168.128 91.104 164.365 90.2674C157.658 88.7766 151.308 85.6653 146.123 80.9267C144.793 79.7112 143.694 79.0114 141.904 79.0294C140.335 79.0449 138.795 79.4661 137.228 79.505C133.081 79.6087 129.342 77.6235 125.491 76.3021C125.255 81.3962 123.773 87.0067 121.645 91.5896C119.91 95.3268 116.285 95.8699 112.724 96.1978C101.336 97.2469 89.9083 96.0761 78.506 96.0916C89.5437 98.5345 100.949 99.5414 111.889 102.416C116.834 103.715 113.058 106.979 110.944 109.241C107.462 112.966 104.873 117.582 103.078 122.445C97.6784 115.553 88.1346 111.012 79.6793 113.129C70.3369 115.468 63.7584 127.839 69.7324 136.733C73.2008 141.895 79.4641 143.888 84.6757 146.107C80.6101 150.246 79.6267 156.358 77.1797 161.508C75.9728 164.047 74.2787 166.918 71.5797 167.803C70.5811 168.13 69.4101 168.158 68.6224 168.955C67.6465 169.942 67.4141 171.046 66.1678 171.894C61.195 175.279 53.4271 175.018 49.0194 170.6C45.0333 166.605 46.0704 160.283 49.3994 156.232C44.1002 154.069 34.4458 151.287 36.5519 143.204C25.0692 142.457 -2.81046 124.222 12.6011 110.897C4.14322 106.217 -3.6272 94.7782 1.8056 84.6949C5.98901 76.9304 15.7181 73.4597 23.7006 73.0479Z" fill="#191847"/>
</g>
<defs>
<clipPath id="clip0_15_5005">
<rect width="206" height="272" fill="white"/>
</clipPath>
</defs>
</svg>
