<svg width="206" height="272" viewBox="0 0 206 272" fill="none" xmlns="http://www.w3.org/2000/svg">
<path fill-rule="evenodd" clip-rule="evenodd" d="M37.8591 135.319C17.0251 116.122 2.92422 92.5956 5.28049 66.2338C12.0696 -9.72174 146.762 6.98752 172.962 45.3234C199.163 83.6592 196.049 180.901 162.188 187.753C148.684 190.485 119.916 183.792 90.6374 169.939L109.015 272H0.502426L37.8591 135.319Z" fill="#B28B67"/>
<path fill-rule="evenodd" clip-rule="evenodd" d="M125.105 50.883C110.38 57.3491 99.9 69.4653 87.285 85.3581C84.2126 84.4101 80.8665 83.8895 77.3655 83.8895C62.383 83.8895 50.2374 93.4239 50.2374 105.185C50.2374 111.156 53.3675 116.552 58.4098 120.419C52.1327 127.374 45.0979 134.64 37.0367 142.137C6.95457 127.969 -15.4198 86.6771 13.3029 46.815C38.0157 -33.0318 178.049 16.5283 204.99 3.06177C210.879 32.0368 191.885 55.4 125.105 50.883Z" fill="#191847"/>
</svg>
