<svg width="206" height="272" viewBox="0 0 206 272" fill="none" xmlns="http://www.w3.org/2000/svg">
<path fill-rule="evenodd" clip-rule="evenodd" d="M51.9922 141.066C32.4546 122.676 19.2311 100.14 21.4408 74.8863C27.8074 2.12473 154.118 18.1314 178.688 54.8552C203.258 91.579 200.339 184.732 168.584 191.296C155.92 193.913 128.943 187.501 101.486 174.23L118.72 272H16.96L51.9922 141.066Z" fill="#B28B67"/>
<path fill-rule="evenodd" clip-rule="evenodd" d="M44.173 157.446C31.4011 111.882 -4.984 80.8228 0.572884 60.4578C4.27747 46.8811 14.1513 38.4383 30.1944 35.1293C38.4917 8.2127 65.2523 -3.23595 110.476 0.783279C178.312 6.81213 219.715 29.4024 201.835 79.1108C185.399 79.1108 165.558 74.3444 138.121 82.5108C129.415 85.102 123.189 93.1374 119.441 106.617H107.042C95.0091 90.6204 83.1441 84.742 71.4475 88.982C59.7509 93.2221 57.0921 103.521 63.471 119.879L57.3635 157.446H44.173Z" fill="#191847"/>
</svg>
