<svg width="260" height="237" viewBox="0 0 260 237" fill="none" xmlns="http://www.w3.org/2000/svg">
<path d="M133.277 81.1792C132.587 83.501 130.617 88.1448 128.942 91.5811C124.902 99.2897 122.735 100.683 109.434 104.026L105 105.141L112.882 107.648C117.316 109.042 121.848 110.713 123.129 111.456C125.69 112.942 131.208 122.694 133.178 129.01C134.558 133.56 136.036 135.882 136.036 133.375C136.036 130.589 143.031 115.636 145.592 113.128C147.07 111.549 151.011 109.785 156.332 108.206C160.864 106.813 164.608 105.512 164.608 105.327C164.608 105.141 162.046 104.305 158.992 103.562C148.351 100.776 145.198 98.7325 142.046 92.417C140.469 89.3521 138.4 84.5227 137.415 81.8293C136.43 79.2288 135.346 76.9998 135.05 76.9998C134.755 76.9998 133.966 78.8573 133.277 81.1792Z" fill="#DE0000"/>
<path d="M221.132 78.5891C203.003 84.3473 188.52 89.1768 189.012 89.1768C189.899 89.2697 205.269 85.9262 237.487 78.5891C245.172 76.8245 253.251 75.1528 255.517 74.7813C257.684 74.4098 259.556 74.0383 259.556 73.7596C259.556 72.3665 256.305 67.9085 255.32 68.0014C254.729 68.0943 239.26 72.8309 221.132 78.5891Z" fill="#FFE600"/>
<path d="M197.643 115.179C196.264 117.965 194.392 119.823 191.83 121.03C188.283 122.795 188.283 122.888 190.648 123.538C194.096 124.559 197.249 127.531 198.53 131.246L199.614 134.497L202.274 129.946C203.949 127.067 206.018 124.931 208.087 124.002L211.338 122.516L207.791 120.937C205.23 119.823 203.653 118.151 202.274 115.179C201.19 112.857 200.205 111 200.106 111C199.909 111 198.826 112.857 197.643 115.179Z" fill="#0082BA"/>
<path d="M174.17 165.641C175.746 168.613 178.111 173.535 186.19 191.088C188.062 195.361 190.426 200.469 191.51 202.512C193.185 205.948 198.506 217.186 205.107 231.489C208.161 238.176 207.57 238.176 219.787 232.325L227.768 228.517L219.984 219.229C215.747 214.121 210.526 207.992 208.457 205.67C206.486 203.255 203.038 199.168 200.87 196.475C198.703 193.782 194.959 189.231 192.495 186.352C190.032 183.38 186.978 179.572 185.599 177.9C182.544 174.185 173.776 163.69 173.086 163.04C172.79 162.762 173.283 163.969 174.17 165.641Z" fill="#FFD600"/>
<path d="M103.948 147.152C103.948 151.889 98.2339 157.647 93.3076 157.926C92.4209 157.926 93.5047 158.576 95.8693 159.412C100.007 160.805 102.273 163.405 103.948 168.978C104.638 171.114 104.737 171.207 105.426 169.442C108.481 161.919 108.875 161.455 113.013 159.783L117.249 158.111L114.097 157.461C110.451 156.625 107.298 153.468 106.412 149.474C105.722 146.409 103.948 144.737 103.948 147.152Z" fill="#FFD600"/>
<path d="M81.0352 190.668C77.9809 193.455 70.9856 199.77 65.5667 204.692C54.3348 214.816 54.4334 213.701 64.1874 218.438L68.3254 220.388L69.8033 218.345C70.5915 217.138 71.9709 214.723 72.7591 212.958C73.5473 211.194 77.0942 204.507 80.6411 198.098C84.2866 191.783 87.0453 186.303 86.9468 186.025C86.7497 185.746 84.188 187.882 81.0352 190.668Z" fill="#0082BA"/>
<path d="M75.9135 130.465C75.2239 131.115 55.0261 139.566 46.5529 142.724C43.006 144.024 39.7547 145.51 39.1635 145.882C38.6709 146.253 34.8284 147.832 30.7889 149.318C26.7493 150.897 20.3452 153.405 16.6997 154.983L10 157.863L11.7735 160.184C12.7587 161.392 14.1381 162.506 14.8277 162.506C15.5174 162.506 24.3847 158.234 34.5328 153.033C44.681 147.925 58.2775 140.959 64.7802 137.616C76.7017 131.579 79.3619 130 77.4899 130C76.8988 130 76.2091 130.186 75.9135 130.465Z" fill="#DE0000"/>
<path d="M54.8582 60.6438C52.4936 63.2443 50.8187 65.4733 51.0157 65.659C52.2966 66.7735 77.6176 79.4045 77.9132 79.1258C78.4058 78.6615 60.4742 56 59.5875 56C59.2919 56 57.1243 58.1362 54.8582 60.6438Z" fill="#FFD600"/>
<path d="M4.84185 26.2286C-0.182954 28.8291 -1.46379 34.4016 1.78756 39.3239C7.40351 47.8684 20.5074 43.9677 20.5074 33.7514C20.5074 30.2222 20.0148 29.3863 17.2561 27.3431C13.5121 24.6497 8.68434 24.2782 4.84185 26.2286Z" fill="#0082BA"/>
<path d="M88.3746 13.1148C86.2071 14.2293 86.3056 14.3222 90.8378 19.9876C93.3009 23.1453 97.1434 28.0677 99.311 30.9468C105.715 39.4913 105.912 39.677 104.73 36.7979C103.449 33.2686 91.5275 11.9075 90.9363 12.0003C90.6407 12.0003 89.4584 12.4647 88.3746 13.1148Z" fill="#DE0000"/>
<path d="M135.591 4.36516C135.887 6.87278 136.773 14.86 137.66 22.29C140.025 44.5799 140.32 46.5303 140.813 46.0659C141.404 45.4158 142.192 41.3293 145.936 20.8969C147.611 11.7023 149.286 3.25066 149.582 2.04329C150.074 0.0929222 149.877 4.57764e-05 142.586 4.57764e-05H135L135.591 4.36516Z" fill="#0082BA"/>
</svg>
